RJogging_XZ.mot
version=1
datacolumns 20
datarows 45
range 0.790000 1.230000
inDegrees=yes
endheader
time	pelvis_tilt	pelvis_list	pelvis_rotation	hip_flexion_r	hip_adduction_r	hip_rotation_r	knee_angle_r	ankle_angle_r	hip_flexion_l	hip_adduction_l	hip_rotation_l	knee_angle_l	ankle_angle_l	pelvis_tx	pelvis_ty	pelvis_tz	lumbar_bending	lumbar_rotation	lumbar_extension
0.790000	-19.150358	4.681157	5.220075	4.749435	-2.916151	-4.785967	-51.664954	-17.697754	37.756368	6.548690	1.713925	-22.888753	6.994666	-0.326746	0.970230	0.000161	8.900780	-5.497685	10.529192
0.800000	-19.081506	5.326479	5.224140	6.895656	-3.981242	-4.805221	-56.367660	-15.545097	37.632244	7.086962	1.217176	-25.531520	7.579050	-0.304531	0.963567	-0.000289	8.202994	-6.197925	10.399358
0.810000	-19.049452	5.964171	5.195692	9.220225	-5.058331	-4.703645	-60.890372	-13.336055	37.648382	7.649005	0.655328	-28.407306	8.564557	-0.282671	0.956846	-0.000699	7.449453	-6.881507	10.277851
0.820000	-19.043164	6.498275	5.103775	11.720890	-6.025997	-4.474480	-65.161670	-11.149383	37.779596	8.128171	0.087890	-31.467086	9.885953	-0.261160	0.950249	-0.001123	6.669898	-7.455099	10.168884
0.830000	-19.049056	6.852938	4.930827	14.383082	-6.787725	-4.137209	-69.106061	-9.065567	37.958150	8.434031	-0.421630	-34.597952	11.435157	-0.239963	0.943953	-0.001604	5.882864	-7.842043	10.073208
0.840000	-19.066361	6.985988	4.680055	17.189677	-7.288906	-3.722824	-72.645437	-7.161961	38.097196	8.511742	-0.827136	-37.635702	13.086044	-0.219014	0.938139	-0.002161	5.090298	-7.997706	9.999342
0.850000	-19.112587	6.890469	4.373543	20.125593	-7.516529	-3.264474	-75.702154	-5.503932	38.113985	8.345619	-1.113769	-40.394223	14.715863	-0.198206	0.932987	-0.002783	4.278981	-7.911522	9.967306
0.860000	-19.212925	6.585540	4.038833	23.170949	-7.482973	-2.796515	-78.204823	-4.127636	37.940222	7.947029	-1.295532	-42.702218	16.227254	-0.177411	0.928667	-0.003439	3.430212	-7.596991	9.999500
0.870000	-19.383073	6.105239	3.692086	26.289316	-7.207660	-2.356219	-80.096654	-3.019616	37.520993	7.338640	-1.403316	-44.433095	17.564374	-0.156491	0.925308	-0.004081	2.533212	-7.080611	10.106869
0.880000	-19.616860	5.491049	3.330260	29.418924	-6.709187	-1.981669	-81.342776	-2.109466	36.809451	6.546804	-1.473519	-45.518244	18.709681	-0.135320	0.922980	-0.004657	1.592951	-6.396835	10.280031
0.890000	-19.883642	4.787740	2.935772	32.471232	-6.008313	-1.703834	-81.932035	-1.287125	35.762719	5.602252	-1.541277	-45.942805	19.661940	-0.113785	0.921695	-0.005117	0.628696	-5.587168	10.489217
0.900000	-20.136839	4.038729	2.487669	35.340470	-5.132816	-1.536908	-81.871895	-0.438787	34.344129	4.541651	-1.637318	-45.730897	20.412616	-0.091796	0.921422	-0.005416	-0.333272	-4.697451	10.693557
0.910000	-20.330537	3.278052	1.972205	37.923022	-4.116159	-1.474480	-81.178706	0.514140	32.533280	3.404343	-1.785810	-44.929703	20.934432	-0.069282	0.922123	-0.005520	-1.268539	-3.768819	10.856377
0.920000	-20.436357	2.521988	1.387843	40.139110	-2.990244	-1.495642	-79.867851	1.588057	30.338134	2.225032	-2.002130	-43.598099	21.182716	-0.046196	0.923760	-0.005407	-2.161156	-2.825555	10.959013
0.930000	-20.452126	1.767789	0.742986	41.947092	-1.779682	-1.576730	-77.948854	2.733276	27.799697	1.027924	-2.292426	-41.800216	21.101121	-0.022513	0.926301	-0.005066	-3.004836	-1.869542	11.005843
0.940000	-20.399336	1.002182	0.052287	43.345350	-0.504863	-1.700383	-75.428026	3.854559	24.986672	-0.171718	-2.654912	-39.603725	20.623888	0.001767	0.929701	-0.004502	-3.802631	-0.886705	11.019461
0.950000	-20.313267	0.215531	-0.663275	44.363885	0.807460	-1.856669	-72.316293	4.847014	21.985279	-1.358172	-3.081916	-37.082453	19.678251	0.026624	0.933873	-0.003730	-4.568964	0.137485	11.031112
0.960000	-20.229777	-0.585220	-1.377077	45.048764	2.116586	-2.036274	-68.635953	5.628262	18.886637	-2.506066	-3.562913	-34.318903	18.190941	0.052020	0.938678	-0.002763	-5.328562	1.201290	11.070125
0.970000	-20.172202	-1.372129	-2.060616	45.443340	3.369889	-2.220843	-64.422570	6.153404	15.773091	-3.579033	-4.085778	-31.402609	16.095181	0.077915	0.943923	-0.001611	-6.109487	2.277932	11.154254
0.980000	-20.141322	-2.102383	-2.686406	45.572051	4.510871	-2.377700	-59.725078	6.419905	12.705769	-4.535163	-4.633928	-28.423657	13.341474	0.104273	0.949387	-0.000269	-6.934721	3.318404	11.282340
0.990000	-20.110857	-2.730168	-3.229814	45.433388	5.488214	-2.462652	-54.609109	6.470818	9.715771	-5.334125	-5.181791	-25.464033	9.916344	0.131058	0.954847	0.001270	-7.814686	4.261977	11.431006
1.000000	-20.035720	-3.218383	-3.672690	45.011007	6.264330	-2.430508	-49.163398	6.390810	6.807713	-5.943697	-5.691805	-22.591533	5.863483	0.158232	0.960101	0.003002	-8.742077	5.050342	11.562380
1.010000	-19.876929	-3.545645	-4.008307	44.304849	6.821270	-2.250184	-43.505614	6.288246	3.981948	-6.344737	-6.115864	-19.860684	1.300990	0.185744	0.964992	0.004907	-9.692824	5.642631	11.646275
1.020000	-19.629186	-3.706403	-4.244801	43.363969	7.161368	-1.918191	-37.783966	6.265793	1.262613	-6.532607	-6.404004	-17.321116	-3.575901	0.213539	0.969407	0.006946	-10.633382	6.026130	11.683344
1.030000	-19.327949	-3.707211	-4.405559	42.292828	7.305264	-1.462718	-32.171113	6.391147	-1.293551	-6.515752	-6.518636	-15.028122	-8.517397	0.241551	0.973276	0.009068	-11.528201	6.217516	11.707837
1.040000	-19.031390	-3.563363	-4.524562	41.224243	7.288755	-0.934021	-26.849412	6.683472	-3.613130	-6.313373	-6.446153	-13.051694	-13.254130	0.269705	0.976560	0.011219	-12.344070	6.254294	11.767676
1.050000	-18.793640	-3.296486	-4.636290	40.279070	7.155629	-0.384930	-21.991254	7.120670	-5.628685	-5.952823	-6.198389	-11.483267	-17.522329	0.297915	0.979240	0.013350	-13.053272	6.181434	11.899595
1.060000	-18.641464	-2.932295	-4.765873	39.530396	6.947761	0.148395	-17.739381	7.654765	-7.297632	-5.466757	-5.804727	-10.434888	-21.083477	0.326094	0.981315	0.015421	-13.634803	6.038363	12.110891
1.070000	-18.562576	-2.497977	-4.924304	38.985236	6.696577	0.652835	-14.192366	8.221770	-8.611878	-4.890075	-5.301410	-10.026290	-23.751162	0.354163	0.982797	0.017405	-14.073746	5.850138	12.373544
1.080000	-18.517973	-2.020554	-5.108318	38.598797	6.420493	1.126915	-11.400510	8.746662	-9.586163	-4.259389	-4.725110	-10.364217	-25.422242	0.382060	0.983700	0.019280	-14.362681	5.628974	12.639496
1.090000	-18.469677	-1.528370	-5.303608	38.310623	6.130830	1.565222	-9.372177	9.149155	-10.234018	-3.615923	-4.111542	-11.520895	-26.102770	0.409752	0.984029	0.021039	-14.504828	5.385956	12.866746
1.100000	-18.398147	-1.054416	-5.490349	38.072265	5.841020	1.953359	-8.085266	9.350222	-10.556886	-3.007055	-3.494104	-13.517211	-25.914429	0.437233	0.983768	0.022678	-14.514833	5.142241	13.032627
1.110000	-18.303331	-0.638565	-5.649693	37.856818	5.573430	2.271733	-7.498627	9.279775	-10.550279	-2.484268	-2.902514	-16.315403	-25.069150	0.464501	0.982873	0.024192	-14.416142	4.933206	13.131127
1.120000	-18.198820	-0.326815	-5.769629	37.658446	5.362314	2.501728	-7.561881	8.891554	-10.215257	-2.099512	-2.363973	-19.821629	-23.817294	0.491549	0.981283	0.025571	-14.236220	4.806034	13.165475
1.130000	-18.106011	-0.164609	-5.847756	37.489493	5.249663	2.633477	-8.223982	8.189048	-9.565652	-1.899273	-1.905170	-23.895890	-22.392317	0.518371	0.978933	0.026798	-14.000978	4.810454	13.144201
1.140000	-18.048570	-0.183526	-5.890560	37.376511	5.272596	2.673731	-9.440004	7.251133	-8.628775	-1.914254	-1.552657	-28.367707	-20.974424	0.544963	0.975786	0.027872	-13.728322	4.982582	13.080684
1.150000	-18.045796	-0.388085	-5.911000	37.353098	5.449476	2.642472	-11.173774	6.232624	-7.441998	-2.149309	-1.328448	-33.057601	-19.671948	0.571321	0.971851	0.028809	-13.421951	5.328771	12.991644
1.160000	-18.109589	-0.750889	-5.924719	37.452676	5.772553	2.557165	-13.394829	5.335682	-6.042712	-2.581221	-1.240961	-37.802781	-18.513274	0.597441	0.967201	0.029654	-13.070231	5.819840	12.895981
1.170000	-18.244232	-1.219025	-5.946060	37.699758	6.209125	2.424139	-16.069068	4.770466	-4.456330	-3.165534	-1.279510	-42.480454	-17.459865	0.623315	0.961957	0.030465	-12.651272	6.398473	12.812856
1.180000	-18.444498	-1.730250	-5.984921	38.096049	6.710350	2.244002	-19.142617	4.711287	-2.691779	-3.849666	-1.416741	-47.020462	-16.438451	0.648924	0.956278	0.031294	-12.141500	6.996338	12.755697
1.190000	-18.695309	-2.231447	-6.043375	38.608791	7.223204	2.021092	-22.524431	5.253894	-0.744073	-4.586744	-1.613800	-51.401789	-15.372761	0.674240	0.950330	0.032165	-11.524946	7.553889	12.727387
1.200000	-18.973236	-2.689647	-6.112769	39.167668	7.699323	1.767521	-26.079058	6.391375	1.396918	-5.342339	-1.822943	-55.632551	-14.207363	0.699230	0.944278	0.033066	-10.798753	8.032823	12.719373
1.210000	-19.249251	-3.092709	-6.173286	39.673192	8.099186	1.494448	-29.636939	8.019371	3.735377	-6.092239	-1.987325	-59.722242	-12.921388	0.723875	0.938287	0.033955	-9.972849	8.417774	12.714458
1.220000	-19.495777	-3.442384	-6.198857	40.018233	8.394545	1.200016	-33.020036	9.967442	6.264393	-6.815205	-2.046430	-63.658756	-11.529044	0.748180	0.932526	0.034778	-9.063776	8.710827	12.695065
1.230000	-19.692289	-3.744667	-6.167694	40.110716	8.570909	0.872429	-36.072412	12.044760	8.963347	-7.485326	-1.954265	-67.396914	-10.074147	0.772185	0.927169	0.035484	-8.084704	8.922195	12.650011
